<?xml version="1.0" encoding="UTF-8" standalone="no"?>
<!-- Created with Inkscape (http://www.inkscape.org/) -->

<svg
   width="5.5932398mm"
   height="5.0272698mm"
   viewBox="0 0 5.5932398 5.0272698"
   version="1.1"
   id="svg1"
   inkscape:version="1.3.2 (091e20e, 2023-11-25, custom)"
   sodipodi:docname="disp_m_icon_star.svg"
   xmlns:inkscape="http://www.inkscape.org/namespaces/inkscape"
   xmlns:sodipodi="http://sodipodi.sourceforge.net/DTD/sodipodi-0.dtd"
   xmlns="http://www.w3.org/2000/svg"
   xmlns:svg="http://www.w3.org/2000/svg">
  <sodipodi:namedview
     id="namedview1"
     pagecolor="#505050"
     bordercolor="#eeeeee"
     borderopacity="1"
     inkscape:showpageshadow="0"
     inkscape:pageopacity="0"
     inkscape:pagecheckerboard="0"
     inkscape:deskcolor="#505050"
     inkscape:document-units="mm"
     inkscape:zoom="24.172409"
     inkscape:cx="10.569902"
     inkscape:cy="9.4942959"
     inkscape:window-width="1920"
     inkscape:window-height="991"
     inkscape:window-x="-9"
     inkscape:window-y="-9"
     inkscape:window-maximized="1"
     inkscape:current-layer="svg1" />
  <defs
     id="defs1" />
  <path
     id="path5-8"
     style="display:inline;fill:#e1cf01;fill-opacity:1;stroke:none;stroke-width:0.0123576"
     d="m 2.79655,0 c -0.008,0.0211 -0.011,0.0447 -0.0157,0.0667 -0.009,0.0396 -0.0183,0.0793 -0.0278,0.11863 -0.0252,0.10448 -0.0516,0.20881 -0.0743,0.31388 -0.0104,0.0479 -0.0222,0.0959 -0.0342,0.14335 -0.004,0.0139 -0.006,0.0281 -0.01,0.042 -10e-4,0.006 -10e-4,0.0136 -0.006,0.0187 -0.007,0.008 -0.0252,0.008 -0.0352,0.009 -0.0349,0.006 -0.0711,0.009 -0.10627,0.0144 C 2.43378,0.73466 2.3804,0.74836 2.3289,0.76376 2.2681,0.78206 2.20742,0.80006 2.14848,0.82406 1.95515,0.90276 1.77556,1.0177 1.62205,1.15887 1.59935,1.17977 1.57925,1.20337 1.55765,1.22537 1.50615,1.27817 1.4567,1.33116 1.41038,1.38846 1.26306,1.57073 1.15746,1.79103 1.09523,2.01622 c -0.0196,0.0711 -0.0368,0.14421 -0.0459,0.21749 -0.003,0.0209 -0.003,0.0438 -0.008,0.0643 -0.002,0.007 -0.003,0.0155 -0.009,0.0198 -0.009,0.006 -0.0213,0.006 -0.0313,0.008 -0.0181,0.003 -0.0362,0.006 -0.0544,0.01 -0.0676,0.0115 -0.13505,0.0241 -0.20267,0.0352 -0.14555,0.0238 -0.28949,0.0537 -0.43498,0.0775 -0.0757,0.0124 -0.152,0.0236 -0.22738,0.0391 -0.0272,0.006 -0.055,0.008 -0.0816,0.0161 v 0.002 L 0.0173,2.51811 0,2.52311 c 0.0107,0.0141 0.0429,0.0125 0.0593,0.0163 0.0609,0.0141 0.12398,0.02 0.18537,0.0316 0.1265,0.0238 0.25357,0.0458 0.38061,0.0666 0.0612,0.01 0.12159,0.0236 0.18289,0.0331 0.0529,0.008 0.10547,0.0187 0.15818,0.0274 0.0132,0.002 0.0262,0.006 0.0395,0.008 0.009,0.001 0.0194,0.001 0.0264,0.007 0.008,0.007 0.005,0.0187 0.007,0.0279 0.004,0.0236 0.007,0.0477 0.009,0.0717 0.009,0.085 0.0328,0.16993 0.0554,0.25209 0.063,0.22901 0.18454,0.44398 0.33315,0.62776 0.0268,0.0331 0.0564,0.0628 0.0854,0.0939 0.086,0.0923 0.18018,0.17802 0.28239,0.25222 0.0169,0.0122 0.0364,0.0215 0.054,0.0328 0.10198,0.0662 0.21015,0.12122 0.32377,0.16456 0.0616,0.0235 0.124,0.0421 0.18784,0.0583 0.0408,0.0103 0.0819,0.0217 0.12357,0.0277 0.0346,0.005 0.0696,0.008 0.1038,0.0146 0.0108,0.002 0.0246,-0.002 0.033,0.007 0.0102,0.0108 0.0101,0.0344 0.0141,0.0484 0.013,0.0455 0.022,0.0924 0.0329,0.13841 0.0264,0.11204 0.0522,0.22416 0.0793,0.33612 0.008,0.0328 0.0155,0.0659 0.0228,0.0989 0.004,0.0201 0.007,0.0433 0.0157,0.0618 h 0.002 c 0.009,-0.0193 0.0109,-0.0434 0.0159,-0.0643 0.009,-0.0387 0.0186,-0.0772 0.027,-0.11616 0.0229,-0.10595 0.052,-0.21045 0.0748,-0.31635 0.01,-0.0453 0.0195,-0.0913 0.0316,-0.13594 0.004,-0.0144 0.005,-0.0399 0.0153,-0.0511 0.008,-0.009 0.0224,-0.005 0.033,-0.007 0.0334,-0.006 0.0675,-0.01 0.10133,-0.0146 0.10659,-0.0157 0.21336,-0.0477 0.31388,-0.086 0.11355,-0.0433 0.22186,-0.0983 0.32377,-0.16456 0.0175,-0.0114 0.0371,-0.0207 0.054,-0.0328 0.0985,-0.0711 0.1898,-0.15354 0.27251,-0.24233 0.032,-0.0344 0.0655,-0.067 0.0949,-0.10381 0.1471,-0.184 0.26782,-0.39468 0.3314,-0.62282 0.0235,-0.0845 0.0463,-0.16988 0.0572,-0.25703 0.003,-0.0248 0.006,-0.0495 0.01,-0.0742 0.001,-0.009 -8.4e-4,-0.0193 0.007,-0.0257 0.006,-0.005 0.0162,-0.006 0.0239,-0.007 0.0141,-0.002 0.028,-0.005 0.042,-0.008 0.0528,-0.009 0.10531,-0.0193 0.15818,-0.0274 0.0613,-0.009 0.12178,-0.0229 0.18289,-0.0331 0.12704,-0.0212 0.25419,-0.0428 0.38062,-0.0666 0.0606,-0.0114 0.12265,-0.0175 0.18289,-0.0312 0.0139,-0.003 0.0281,-0.005 0.042,-0.008 0.008,-0.002 0.0146,-0.001 0.0198,-0.008 l -0.0173,-0.0124 0.0173,-0.005 v -0.002 C 5.55754,2.49257 5.51884,2.48917 5.48203,2.48257 5.41613,2.47087 5.35043,2.45827 5.28431,2.44897 5.24801,2.44397 5.21161,2.43487 5.17556,2.42817 5.06743,2.40797 4.95815,2.38897 4.84932,2.37117 4.77852,2.35957 4.70727,2.34837 4.63677,2.33427 c -0.0147,-0.003 -0.0297,-0.006 -0.0445,-0.008 -0.0107,-0.002 -0.0251,-0.002 -0.0338,-0.009 -0.0103,-0.009 -0.008,-0.0284 -0.008,-0.0406 -0.002,-0.0285 -0.007,-0.0585 -0.0128,-0.0865 C 4.51377,2.07397 4.48657,1.96032 4.44387,1.8491 4.33083,1.55434 4.13732,1.29571 3.89576,1.09362 3.77886,0.99582 3.64644,0.91525 3.50773,0.85272 3.44443,0.82422 3.37961,0.79632 3.31248,0.77792 3.22998,0.75522 3.14787,0.73122 3.06286,0.72032 c -0.0239,-0.003 -0.048,-0.005 -0.0717,-0.009 -0.008,-0.001 -0.0194,-5.2e-4 -0.0254,-0.008 -0.008,-0.009 -0.008,-0.0293 -0.0111,-0.0409 -0.01,-0.0377 -0.0178,-0.0758 -0.0269,-0.11369 -0.0309,-0.1284 -0.0621,-0.25677 -0.0912,-0.38555 -0.009,-0.0387 -0.0174,-0.0776 -0.0268,-0.11616 -0.004,-0.0147 -0.004,-0.035 -0.0138,-0.047 z m 0.20019,0.8329 c 0.37817,0.0478 0.74179,0.24348 1.00074,0.52149 0.11181,0.12004 0.20607,0.26426 0.27548,0.41274 0.0603,0.12893 0.11154,0.26276 0.13841,0.40286 0.006,0.0305 0.0116,0.061 0.0173,0.0914 0.002,0.009 0.009,0.0275 0,0.0345 -0.005,0.004 -0.0129,10e-4 -0.0183,-2.2e-4 -0.0139,-0.003 -0.028,-0.005 -0.042,-0.008 C 4.31607,2.27717 4.26269,2.26997 4.2102,2.26017 4.161,2.25117 4.1111,2.24517 4.06191,2.23587 3.96076,2.21677 3.85955,2.19757 3.75791,2.18097 3.69151,2.17017 3.62272,2.16297 3.55772,2.14557 h 4e-5 l 0.0216,-0.0519 0.0494,-0.0964 0.17193,-0.33612 0.042,-0.084 0.0338,-0.0717 -0.12111,0.0816 -0.3386,0.22979 -0.11616,0.0791 -0.0442,0.0258 -0.0107,-0.016 -0.01,-0.0445 L 3.19082,1.67093 3.14872,1.49546 3.05462,1.09013 3.01052,0.90229 Z m -0.40816,0.001 c 0.003,1.7e-4 0.005,7.1e-4 0.007,0.002 0.006,0.004 0.002,0.0116 7.6e-4,0.0168 -0.004,0.0137 -0.006,0.0282 -0.009,0.042 -0.0155,0.0606 -0.0256,0.12278 -0.0429,0.18289 -0.0193,0.0673 -0.0321,0.13685 -0.0474,0.20513 -0.0324,0.14427 -0.066,0.28935 -0.10304,0.43252 -0.007,0.0277 -0.0118,0.0562 -0.0186,0.084 -0.005,0.0214 -0.0122,0.0425 -0.0157,0.0643 -0.002,0.0133 -0.006,0.0265 -0.009,0.0395 -10e-4,0.006 -10e-4,0.0137 -0.007,0.0171 C 2.332,1.92714 2.3115,1.90664 2.3028,1.90064 2.2659,1.87524 2.2282,1.85094 2.19159,1.82504 2.07788,1.74464 1.96077,1.66871 1.84557,1.59045 1.80367,1.56195 1.76037,1.53515 1.71953,1.50515 l 0.0293,0.0643 0.0438,0.0865 0.17282,0.3386 0.0497,0.0964 0.0232,0.0544 c -0.0659,0.0153 -0.13344,0.0245 -0.20019,0.0354 -0.1025,0.0168 -0.20417,0.0377 -0.30647,0.0552 -0.0485,0.008 -0.0974,0.0149 -0.14582,0.024 -0.0525,0.01 -0.1059,0.0171 -0.15817,0.0275 -0.014,0.003 -0.0281,0.005 -0.042,0.008 -0.005,10e-4 -0.0133,0.004 -0.0183,2.1e-4 -0.009,-0.007 -0.002,-0.0258 -2.9e-4,-0.0345 0.006,-0.0297 0.01,-0.0593 0.0167,-0.089 C 1.21351,2.04284 1.25371,1.92039 1.30762,1.79896 1.37772,1.64082 1.47568,1.49007 1.5914,1.36151 1.76077,1.17333 1.97977,1.02908 2.2138,0.93481 c 0.0901,-0.0363 0.18279,-0.0607 0.27681,-0.0835 0.0244,-0.006 0.0495,-0.009 0.0741,-0.014 0.006,-0.001 0.0164,-0.004 0.0244,-0.003 z M 1.15793,2.73332 c 0.035,0 0.0696,0.01 0.10381,0.0164 0.0425,0.008 0.0857,0.0154 0.12852,0.0224 0.085,0.0139 0.16974,0.0284 0.25456,0.0444 0.0632,0.0119 0.12766,0.0184 0.19031,0.0333 0.0502,0.0119 0.10271,0.0147 0.15323,0.0256 0.0105,0.002 0.0437,0.002 0.0475,0.0145 0.004,0.012 -0.0129,0.0333 -0.018,0.0437 -0.019,0.0391 -0.04,0.0772 -0.0592,0.11616 -0.0785,0.15921 -0.1611,0.31662 -0.24219,0.47451 0.0205,-0.008 0.0389,-0.0233 0.0568,-0.0357 0.027,-0.0187 0.0542,-0.0374 0.0816,-0.0555 0.111,-0.0737 0.22067,-0.14937 0.33118,-0.22383 0.038,-0.0256 0.0756,-0.0517 0.11369,-0.0771 0.009,-0.006 0.03,-0.027 0.0416,-0.0224 0.006,0.002 0.007,0.009 0.008,0.0142 0.003,0.0131 0.007,0.0263 0.009,0.0395 0.009,0.0511 0.0225,0.10306 0.0355,0.15324 0.0159,0.0615 0.0282,0.12369 0.0431,0.18536 0.0376,0.15555 0.0739,0.31139 0.11059,0.46712 0.0143,0.0609 0.0283,0.12185 0.0421,0.18289 0.003,0.014 0.009,0.0277 0.011,0.042 6.1e-4,0.005 10e-4,0.0136 -0.004,0.0172 -0.008,0.006 -0.0294,-3.4e-4 -0.038,-0.002 -0.0301,-0.007 -0.0612,-0.0113 -0.0914,-0.0183 C 2.33227,4.15967 2.20336,4.11447 2.07924,4.05239 1.93389,3.97969 1.79795,3.88728 1.67885,3.77654 1.48482,3.59611 1.34074,3.35949 1.24997,3.11192 1.22177,3.03492 1.20167,2.9567 1.18307,2.87713 1.17217,2.83043 1.16127,2.78153 1.15737,2.73378 Z m 3.2797,0 c -0.003,0.0322 -0.0105,0.0646 -0.0162,0.0964 -0.0133,0.0729 -0.0315,0.1444 -0.0541,0.21502 C 4.28013,3.31733 4.12716,3.58054 3.91614,3.77609 3.79526,3.8881 3.65788,3.9804 3.51081,4.05435 3.3887,4.11575 3.26062,4.15967 3.12773,4.19052 c -0.0303,0.007 -0.0613,0.0112 -0.0915,0.0183 -0.009,0.002 -0.0304,0.008 -0.0385,0.002 -0.005,-0.004 -0.004,-0.0117 -0.003,-0.0172 0.002,-0.0143 0.007,-0.0282 0.0107,-0.042 0.0161,-0.0603 0.0295,-0.12196 0.0426,-0.1829 0.0187,-0.0868 0.0408,-0.17318 0.0616,-0.25951 0.0313,-0.12999 0.06,-0.26049 0.0911,-0.39049 0.0123,-0.0515 0.0267,-0.10358 0.0365,-0.15571 0.002,-0.0133 0.006,-0.0264 0.009,-0.0395 10e-4,-0.005 0.002,-0.012 0.008,-0.0142 0.0112,-0.004 0.0328,0.0165 0.0417,0.0225 0.037,0.0252 0.0737,0.0513 0.11122,0.0756 0.11177,0.0724 0.22036,0.14995 0.33118,0.22383 0.0454,0.0303 0.0896,0.0683 0.13841,0.0926 l -0.032,-0.0667 -0.0445,-0.089 -0.16193,-0.31636 -0.0596,-0.11616 -0.0187,-0.0462 0.0105,-0.008 0.0395,-0.007 0.15324,-0.0258 0.18783,-0.0325 0.25457,-0.0444 0.12852,-0.0224 z" />
</svg>
