<?xml version="1.0" encoding="UTF-8" standalone="no"?>
<!-- Created with Inkscape (http://www.inkscape.org/) -->

<svg
   width="476.25mm"
   height="17.991667mm"
   viewBox="0 0 476.25 17.991667"
   version="1.1"
   id="svg1"
   xml:space="preserve"
   inkscape:version="1.3.2 (091e20e, 2023-11-25, custom)"
   sodipodi:docname="disp_m_divider.svg"
   xmlns:inkscape="http://www.inkscape.org/namespaces/inkscape"
   xmlns:sodipodi="http://sodipodi.sourceforge.net/DTD/sodipodi-0.dtd"
   xmlns="http://www.w3.org/2000/svg"
   xmlns:svg="http://www.w3.org/2000/svg"><sodipodi:namedview
     id="namedview1"
     pagecolor="#505050"
     bordercolor="#eeeeee"
     borderopacity="1"
     inkscape:showpageshadow="0"
     inkscape:pageopacity="0"
     inkscape:pagecheckerboard="0"
     inkscape:deskcolor="#505050"
     inkscape:document-units="mm"
     inkscape:zoom="0.425"
     inkscape:cx="850.58824"
     inkscape:cy="212.94118"
     inkscape:window-width="1920"
     inkscape:window-height="991"
     inkscape:window-x="-9"
     inkscape:window-y="-9"
     inkscape:window-maximized="1"
     inkscape:current-layer="g2" /><defs
     id="defs1"><linearGradient
       id="a-1"
       gradientUnits="userSpaceOnUse"
       x1="-23.36718"
       x2="33.069611"
       y1="-116.69759"
       y2="-18.946199"><stop
         offset="0"
         stop-color="#437644"
         id="stop1-5"
         style="stop-color:#03007a;stop-opacity:1;" /><stop
         offset="1"
         stop-color="#233e24"
         id="stop2-7"
         style="stop-color:#050022;stop-opacity:1;" /></linearGradient></defs><g
     inkscape:groupmode="layer"
     inkscape:label="Band"
     id="g2"
     transform="matrix(0,-0.03059807,0.15875,0,0,24.32547)"><g
       transform="matrix(0,20,-5.8800003,0,102.20727,1402.9768)"
       id="g10"
       inkscape:label="Background"><path
         d="m -70.148842,-117.82191 c 50,0 100,0 150,0 0,33.333334 0,66.666669 0,100.000003 -50,0 -100,0 -150,0 0,-33.333334 0,-66.666669 0,-100.000003 z"
         fill="url(#a)"
         fill-rule="evenodd"
         stroke-dashoffset="1.90299"
         stroke-linejoin="round"
         stroke-width="9.35004"
         id="path2-4"
         style="fill:url(#a-1)" /></g><path
       style="fill:#14529e;stroke:none;fill-opacity:1"
       d="m 207,0 v 3000 h 88 V 0 h -88"
       id="path1" /><path
       style="display:inline;fill:#14529e;stroke:none;fill-opacity:1"
       d="m 707,0 v 3000 h 88 V 0 h -88"
       id="path3" /><path
       style="display:inline;fill:#238de6;fill-opacity:1;stroke:none"
       d="M 356,0 V 3000 H 647 V 0 H 356"
       id="path2" /><path
       style="fill:#e2cf00;fill-opacity:1;stroke:none"
       d="m 505,1126 c 1.12128,14.0896 1.94662,32.4503 8.9043,45 9.583,17.2852 30.63781,23.5144 49.0957,26 -1.32623,4.5341 -6.83673,4.4554 -11,5 -9.73285,1.2729 -19.81879,2.9119 -28,8.7407 -12.26239,8.7365 -15.77939,23.2316 -18.07407,37.2593 -0.96185,5.88 -0.65374,18.5519 -5.92593,22 -0.23001,-27.791 -5.54242,-58.297 -35,-68.9097 -7.89499,-2.8443 -16.65024,-4.4303 -25,-5.0903 v -4 c 16.00934,0 35.27209,-2.6711 46.69907,-15.0903 C 498.18021,1164.4316 500.70331,1142.2939 502,1126 h 3"
       id="path8"
       transform="matrix(0.99999966,0,0,0.19274368,3.3076705e-4,1210.8845)" /><path
       style="fill:#e2cf00;fill-opacity:1;stroke:none"
       d="m 504,1726 c 6.7146,18.8159 1.50427,39.4673 17.01849,54.9814 7.97486,7.9749 18.3238,11.2245 28.98151,13.889 4.40149,1.1003 11.57617,1.262 13,6.1296 -22.21112,2.8682 -44.31854,6.2015 -52.94598,30 -3.51209,9.688 -1.97641,33.8575 -10.05402,40 -0.12646,-15.2786 -1.34027,-34.3958 -8.90433,-48 -9.88052,-17.7705 -31.72018,-25.6005 -51.09567,-26 v -4 c 21.14276,-0.436 46.2142,-5.5974 54.45526,-28 4.12555,-11.215 2.10584,-29.9138 9.54474,-39"
       id="path10"
       transform="matrix(0.99999966,0,0,0.19274368,3.3076705e-4,1210.8845)" /><path
       style="fill:#e2cf00;fill-opacity:1;stroke:none"
       d="m 504,1353 c 4.29517,8.8744 2.1412,18.5675 3.42517,28 4.41724,32.4507 8.73041,71.7487 39.57483,90.5363 13.91534,8.4759 30.33417,11.1088 46,14.4637 2.72137,0.5828 13.82367,1.4956 13.07867,5.8311 -0.99456,5.7878 -22.31677,7.658 -27.07867,8.618 -21.82593,4.3999 -42.33643,11.8953 -53.68829,32.5509 -10.92664,19.882 -13.02674,43.7732 -15.14194,66 -0.82175,8.6351 1.75763,22.9202 -7.16977,28 -6.97025,-35.9429 -2.46103,-82.1213 -31.08951,-109.8295 -15.20425,-14.7154 -33.94974,-17.3315 -53.91049,-20.4452 -4.20908,-0.6566 -18.29443,-2.4943 -19.0787,-7.8032 -0.78809,-5.3346 11.66757,-6.4112 15.0787,-7.0023 17.71729,-3.0701 36.87695,-4.2764 52,-14.963 24.86334,-17.5696 28.18692,-52.1804 30.83023,-79.9568 1.07742,-11.3217 0.0244,-23.4888 5.16977,-34 h 2"
       id="path9"
       transform="matrix(0.99999966,0,0,0.19274368,3.3076705e-4,1210.8845)" /></g></svg>
